<?xml version="1.0" encoding="UTF-8"?>
<svg width="30px" height="30px" viewBox="0 0 30 30" version="1.1" xmlns="http://www.w3.org/2000/svg" xmlns:xlink="http://www.w3.org/1999/xlink">
    <!-- Generator: Sketch 49.3 (51167) - http://www.bohemiancoding.com/sketch -->
    <title>ic_bitcointalk</title>
    <desc>Created with Sketch.</desc>
    <defs>
	 <linearGradient x1="0%" y1="0%" x2="101.999998%" y2="100.999999%" id="linearGradient-1">
            <stop stop-color="#3023AE" offset="0%"></stop>
            <stop stop-color="#C86DD7" offset="100%"></stop>
        </linearGradient>
	</defs>
    <g id="landing" stroke="none" stroke-width="1" fill="none" fill-rule="evenodd">
        <g id="ncrypto-landing" transform="translate(-500.000000, -680.000000)" fill="url(#linearGradient-1)">
            <g id="Group-5" transform="translate(200.000000, 680.000000)">
                <path d="M300,15 C300,6.71572834 306.715728,0 315,0 C323.284272,0 330,6.71572834 330,15 C330,23.2842717 323.284272,30 315,30 C306.715728,30 300,23.2842717 300,15 Z M321.355849,10.9831397 C321.133825,8.70924501 319.176847,7.95039566 316.707101,7.73759945 L316.701286,4.58333333 L314.788712,4.58704798 L314.794527,7.65853053 C314.291274,7.65959186 313.777449,7.67020513 313.267852,7.68134907 L313.262037,4.5897013 L311.349992,4.59341595 L311.355807,7.74662073 C310.941363,7.75617268 310.53432,7.7646633 310.13785,7.76572463 L310.13785,7.75617268 L307.5,7.75988733 L307.5037,9.81090323 C307.5037,9.81090323 308.916192,9.78065539 308.892933,9.80718859 C309.6679,9.80559659 309.920584,10.2566609 309.994592,10.6461682 L310.001464,14.239824 C310.055384,14.2403547 310.125163,14.243008 310.203928,14.2530906 C310.139964,14.2536213 310.071772,14.2530906 310.001464,14.2541519 L310.010451,19.2885602 C309.977147,19.5331962 309.833889,19.9232342 309.293104,19.9253568 C309.31742,19.947114 307.902285,19.9274795 307.902285,19.9274795 L307.52696,22.2220701 L310.016266,22.2178248 C310.479343,22.2178248 310.93502,22.2241928 311.382238,22.2263154 L311.389111,25.4166667 L313.299569,25.4134827 L313.293755,22.2560326 C313.818153,22.2661152 314.325635,22.2692992 314.821487,22.2687685 L314.826774,25.4102987 L316.739347,25.4065841 L316.734589,22.2220701 C319.949172,22.0310311 322.199009,21.2132781 322.472838,18.182126 C322.693804,15.7405414 321.54774,14.6537418 319.721862,14.2164748 C320.829865,13.6470724 321.52078,12.646771 321.355849,10.9831397 Z M317.791844,11.8475912 C317.795016,14.0169452 314.402815,13.7701865 313.323358,13.7717784 L313.316486,9.93826256 C314.395942,9.93613991 317.787615,9.58484042 317.791844,11.8475912 Z M318.692625,17.8095999 C318.697911,20.1933421 314.630653,19.9306635 313.33393,19.9338474 L313.327058,15.706579 C314.623781,15.7044563 318.687867,15.3234396 318.692625,17.8095999 Z" id="ic_bitcointalk"></path>
            </g>
        </g>
    </g>
</svg>