<?xml version="1.0" encoding="UTF-8"?>
<svg width="44px" height="39px" viewBox="0 0 44 39" version="1.1" xmlns="http://www.w3.org/2000/svg" xmlns:xlink="http://www.w3.org/1999/xlink">
    <!-- Generator: Sketch 49.3 (51167) - http://www.bohemiancoding.com/sketch -->
    <title>ic_busslogic</title>
    <desc>Created with Sketch.</desc>
    <defs></defs>
    <g id="landing" stroke="none" stroke-width="1" fill="none" fill-rule="evenodd">
        <g id="ncrypto-landing" transform="translate(-566.000000, -5156.000000)" fill="#000000" fill-rule="nonzero">
            <g id="ic_busslogic" transform="translate(564.000000, 5152.000000)">
                <path d="M7.8666666,27.3333333 L7.8666666,37.3333333 C7.8666666,38.8797307 9.12026933,40.1333334 10.6666667,40.1333334 L12,40.1333334 L12,42.5333333 L10.6666667,42.5333333 C7.79478601,42.5333333 5.46666674,40.205214 5.46666674,37.3333333 L5.46666674,27.3333333 C5.46666674,26.4520129 5.05172309,25.6221256 4.34666671,25.0933333 L3.28000004,24.2933333 C2.64000008,23.8133333 2.64000008,22.8533334 3.28000004,22.3733334 L4.34666671,21.5733334 C5.05172309,21.0445411 5.46666674,20.2146538 5.46666674,19.3333333 L5.46666674,9.33333333 C5.46666674,6.46145267 7.79478601,4.1333334 10.6666667,4.1333334 L12,4.1333334 L12,6.53333326 L10.6666667,6.53333326 C9.12026933,6.53333326 7.8666666,7.78693599 7.8666666,9.33333333 L7.8666666,19.3333333 C7.8666666,20.8837376 7.17520824,22.3484341 5.98933629,23.3333333 C7.17520824,24.3182325 7.8666666,25.7829291 7.8666666,27.3333333 Z" id="Path-2"></path>
                <path d="M41.0666665,27.3333333 L41.0666665,37.3333333 C41.0666665,38.8797307 42.3202693,40.1333334 43.8666666,40.1333334 L45.1999999,40.1333334 L45.1999999,42.5333333 L43.8666666,42.5333333 C40.9947859,42.5333333 38.6666667,40.205214 38.6666667,37.3333333 L38.6666667,27.3333333 C38.6666667,26.4520129 38.251723,25.6221256 37.5466666,25.0933333 L36.48,24.2933333 C35.84,23.8133333 35.84,22.8533334 36.48,22.3733334 L37.5466666,21.5733334 C38.251723,21.0445411 38.6666667,20.2146538 38.6666667,19.3333333 L38.6666667,9.33333333 C38.6666667,6.46145267 40.9947859,4.1333334 43.8666666,4.1333334 L45.1999999,4.1333334 L45.1999999,6.53333326 L43.8666666,6.53333326 C42.3202693,6.53333326 41.0666665,7.78693599 41.0666665,9.33333333 L41.0666665,19.3333333 C41.0666665,20.8837376 40.3752082,22.3484341 39.1893362,23.3333333 C40.3752082,24.3182325 41.0666665,25.7829291 41.0666665,27.3333333 Z" id="Path-2" transform="translate(40.600000, 23.333333) scale(-1, 1) translate(-40.600000, -23.333333) "></path>
                <path d="M24,33.3333333 C29.1546577,33.3333333 33.3333333,29.1546577 33.3333333,24 C33.3333333,18.8453423 29.1546577,14.6666667 24,14.6666667 C18.8453423,14.6666667 14.6666667,18.8453423 14.6666667,24 C14.6666667,29.1546577 18.8453423,33.3333333 24,33.3333333 Z M24,35.7333332 C17.519859,35.7333332 12.2666668,30.480141 12.2666668,24 C12.2666668,17.519859 17.519859,12.2666668 24,12.2666668 C30.480141,12.2666668 35.7333332,17.519859 35.7333332,24 C35.7333332,30.480141 30.480141,35.7333332 24,35.7333332 Z" id="Oval-3"></path>
                <polygon id="Path-3" points="22.8000001 22.8000001 22.8000001 14.6666667 25.1999999 14.6666667 25.1999999 25.1999999 14.6666667 25.1999999 14.6666667 22.8000001"></polygon>
                <polygon id="Path-6" points="23.1514719 24.8485281 24.8485281 23.1514719 32.1818614 30.4848052 30.4848052 32.1818614"></polygon>
            </g>
        </g>
    </g>
</svg>