<?xml version="1.0" encoding="UTF-8"?>
<svg width="30px" height="34px" viewBox="0 0 30 34" version="1.1" xmlns="http://www.w3.org/2000/svg" xmlns:xlink="http://www.w3.org/1999/xlink">
    <!-- Generator: Sketch 49.3 (51167) - http://www.bohemiancoding.com/sketch -->
    <title>ic_decezd</title>
    <desc>Created with Sketch.</desc>
    <defs></defs>
    <g id="landing" stroke="none" stroke-width="1" fill="none" fill-rule="evenodd">
        <g id="ncrypto-landing" transform="translate(-405.000000, -3936.000000)" fill="#FFFFFF">
            <g id="ic_decezd" transform="translate(399.000000, 3932.000000)">
                <polygon id="Path-6" fill-rule="nonzero" points="21.503871 21.8637789 20.496129 20.1362211 32.496129 13.1362211 33.503871 14.8637789"></polygon>
                <path d="M10,14.5743703 L10,27.4256297 L21,33.8422963 L32,27.4256297 L32,14.5743703 L21,8.15770367 L10,14.5743703 Z M21,5.84229633 L34,13.4256297 L34,28.5743703 L21,36.1577037 L8,28.5743703 L8,13.4256297 L21,5.84229633 Z" id="Path-7" fill-rule="nonzero"></path>
                <polygon id="Path-8" fill-rule="nonzero" points="21.503871 20.1362211 20.496129 21.8637789 8.49612897 14.8637789 9.50387103 13.1362211"></polygon>
                <polygon id="Path-9" fill-rule="nonzero" points="22 35 20 35 20 21 22 21"></polygon>
                <circle id="Oval-13" cx="21" cy="21" r="3"></circle>
                <circle id="Oval-13" cx="33" cy="14" r="3"></circle>
                <circle id="Oval-13" cx="9" cy="14" r="3"></circle>
                <circle id="Oval-13" cx="9" cy="28" r="3"></circle>
                <circle id="Oval-13" cx="33" cy="28" r="3"></circle>
                <circle id="Oval-13" cx="21" cy="35" r="3"></circle>
                <circle id="Oval-13" cx="21" cy="7" r="3"></circle>
            </g>
        </g>
    </g>
</svg>