<?xml version="1.0" encoding="UTF-8"?>
<svg width="32px" height="26px" viewBox="0 0 32 26" version="1.1" xmlns="http://www.w3.org/2000/svg" xmlns:xlink="http://www.w3.org/1999/xlink">
    <!-- Generator: Sketch 49.3 (51167) - http://www.bohemiancoding.com/sketch -->
    <title>ic_diamond</title>
    <desc>Created with Sketch.</desc>
    <defs></defs>
    <g id="landing" stroke="none" stroke-width="1" fill="none" fill-rule="evenodd">
        <g id="ncrypto-landing" transform="translate(-245.000000, -2109.000000)" fill="#000000" fill-rule="nonzero">
            <g id="Group-13" transform="translate(240.000000, 2101.000000)">
                <g id="ic_diamond">
                    <path d="M12.9781676,10 L7.62999782,16.8762183 L21,31.0818456 L34.3700022,16.8762183 L29.0218324,10 L12.9781676,10 Z M12.9781676,8 L29.0218324,8 C29.6390133,8 30.2216244,8.28494569 30.6005368,8.77211877 L35.9487066,15.6483371 C36.553823,16.4263438 36.501916,17.5292142 35.8264022,18.2469477 L22.4564,32.452575 C21.699367,33.2569225 20.4336181,33.2952785 19.6292706,32.5382456 C19.5998551,32.5105605 19.5712852,32.4819905 19.5436,32.452575 L6.17359784,18.2469477 C5.498084,17.5292142 5.44617704,16.4263438 6.05129339,15.6483371 L11.3994632,8.77211877 C11.7783756,8.28494569 12.3609867,8 12.9781676,8 Z" id="Rectangle-12"></path>
                    <polygon id="Path-4" points="7 18 7 16 35 16 35 18"></polygon>
                    <path d="M28.0655123,9.64400467 L29.9344877,10.3559953 L21.9344877,31.3559953 C21.6073743,32.2146682 20.3926257,32.2146682 20.0655123,31.3559953 L12.0655123,10.3559953 L13.9344877,9.64400467 L21,28.1909744 L28.0655123,9.64400467 Z" id="Path-5"></path>
                </g>
            </g>
        </g>
    </g>
</svg>