<?xml version="1.0" encoding="UTF-8"?>
<svg width="29px" height="26px" viewBox="0 0 29 26" version="1.1" xmlns="http://www.w3.org/2000/svg" xmlns:xlink="http://www.w3.org/1999/xlink">
    <!-- Generator: Sketch 49.3 (51167) - http://www.bohemiancoding.com/sketch -->
    <title>ic_exchange</title>
    <desc>Created with Sketch.</desc>
    <defs></defs>
    <g id="landing" stroke="none" stroke-width="1" fill="none" fill-rule="evenodd">
        <g id="ncrypto-landing" transform="translate(-705.000000, -3940.000000)" fill="#ffffff" fill-rule="nonzero">
            <g id="ic_exchange" transform="translate(699.000000, 3932.000000)">
                <g id="Group" transform="translate(6.857143, 8.428571)">
                    <path d="M25.5857864,4.85714286 L22.4357504,1.70710678 C22.0452261,1.31658249 22.0452261,0.683417511 22.4357504,0.292893219 C22.8262747,-0.0976310729 23.4594396,-0.0976310729 23.8499639,0.292893219 L27.7071068,4.15003608 C28.0976311,4.54056037 28.0976311,5.17372535 27.7071068,5.56424964 L23.8499639,9.4213925 C23.4594396,9.81191679 22.8262747,9.81191679 22.4357504,9.4213925 C22.0452261,9.0308682 22.0452261,8.39770322 22.4357504,8.00717893 L25.5857864,4.85714286 Z" id="Path-5"></path>
                    <path d="M13.8291351,8.60480864 C16.2702771,5.18597688 18.6817405,3.85714286 23.1428571,3.85714286 L27,3.85714286 L27,5.85714286 L23.1428571,5.85714286 C19.1902136,5.85714286 17.2608996,7.01092007 15.0012037,10.4269736 C14.6128555,9.78181352 14.2236748,9.17469604 13.8291351,8.60480864 Z M11.122823,16.4749636 C8.42457244,19.8540847 5.36080437,21.2857143 0,21.2857143 L0,19.2857143 C4.96009594,19.2857143 7.55065469,17.9941961 10.0162328,14.6333119 C10.1223817,14.8162452 10.2195412,14.9838145 10.2242551,14.9920056 C10.5268562,15.5124881 10.8255152,16.0065839 11.122823,16.4749636 Z" id="Combined-Shape"></path>
                    <path d="M12.11796,13.8436635 C12.1348115,13.8726999 12.1413727,13.8839922 12.1398157,13.8812887 C12.1325346,13.8687653 12.1252493,13.8562235 12.11796,13.8436635 Z M11.6719354,13.0752996 C8.58820104,7.78889787 6.06618756,5.85714286 0,5.85714286 L0,3.85714286 C6.89809816,3.85714286 9.99284291,6.22758565 13.3994932,12.0675575 C13.4928479,12.2275941 13.8602294,12.8610894 13.8700614,12.878168 C16.6902604,17.7289701 18.5515612,19.2857143 23.1428571,19.2857143 L27,19.2857143 L27,21.2857143 L23.1428571,21.2857143 C17.6702329,21.2857143 15.2821065,19.2859682 12.1398157,13.8812887 C12.129516,13.8634047 11.7639587,13.2330538 11.6719354,13.0752996 Z" id="Path-4"></path>
                    <path d="M22.4357504,17.1356782 C22.0452261,16.7451539 22.0452261,16.1119889 22.4357504,15.7214646 C22.8262747,15.3309404 23.4594396,15.3309404 23.8499639,15.7214646 L27.7071068,19.5786075 C28.0976311,19.9691318 28.0976311,20.6022968 27.7071068,20.9928211 L23.8499639,24.8499639 C23.4594396,25.2404882 22.8262747,25.2404882 22.4357504,24.8499639 C22.0452261,24.4594396 22.0452261,23.8262747 22.4357504,23.4357504 L25.5857864,20.2857143 L22.4357504,17.1356782 Z" id="Path-5"></path>
                </g>
            </g>
        </g>
    </g>
</svg>