<?xml version="1.0" encoding="UTF-8"?>
<svg width="30px" height="30px" viewBox="0 0 30 30" version="1.1" xmlns="http://www.w3.org/2000/svg" xmlns:xlink="http://www.w3.org/1999/xlink">
    <!-- Generator: Sketch 49.3 (51167) - http://www.bohemiancoding.com/sketch -->
    <title>ic_github</title>
    <desc>Created with Sketch.</desc>
    <defs>
	 <linearGradient x1="0%" y1="0%" x2="101.999998%" y2="100.999999%" id="linearGradient-1">
            <stop stop-color="#3023AE" offset="0%"></stop>
            <stop stop-color="#C86DD7" offset="100%"></stop>
        </linearGradient>
	</defs>
    <g id="landing" stroke="none" stroke-width="1" fill="none" fill-rule="evenodd">
        <g id="ncrypto-landing" transform="translate(-450.000000, -680.000000)" fill="url(#linearGradient-1)">
            <g id="Group-5" transform="translate(200.000000, 680.000000)">
                <path d="M265.000124,0 C273.284123,0 280,6.88559222 280,15.3797582 C280,22.1726461 275.707473,27.9355985 269.750693,29.9715292 C268.990354,30.1225559 268.720348,29.642989 268.720348,29.2337144 C268.720348,28.7271512 268.737735,27.0709519 268.737735,25.0131184 C268.737735,23.578238 268.258332,22.6422803 267.720306,22.1650056 C271.060484,21.7842555 274.569572,20.4835927 274.569572,14.5764901 C274.569572,12.8973693 273.98758,11.5253954 273.025792,10.4483437 C273.181536,10.0609719 273.695218,8.49671282 272.878741,6.37826497 C272.878741,6.37826497 271.620865,5.9649155 268.757856,7.95474876 C267.559097,7.61398377 266.274891,7.44309191 265.000124,7.43723421 C263.725357,7.44309191 262.442144,7.61398377 261.245622,7.95474876 C258.379135,5.9649155 257.11952,6.37826497 257.11952,6.37826497 C256.30503,8.49671282 256.818464,10.0609719 256.974208,10.4483437 C256.014655,11.5253954 255.42869,12.8973693 255.42869,14.5764901 C255.42869,20.4695851 258.93107,21.7883304 262.262803,22.1772304 C261.833823,22.5612913 261.445084,23.2397651 261.310453,24.2337904 C260.454481,24.6267653 258.283254,25.3065125 256.945394,22.955285 C256.945394,22.955285 256.152267,21.4788913 254.645995,21.3703966 C254.645995,21.3703966 253.182447,21.3507861 254.543407,22.3053356 C254.543407,22.3053356 255.526558,22.778026 256.208901,24.5557089 C256.208901,24.5557089 257.089464,27.3006753 261.262513,26.3703207 C261.268971,27.6554479 261.282881,28.8669718 261.282881,29.2337144 C261.282881,29.6399328 261.007659,30.1159341 260.258,29.9735667 C254.297992,27.9399281 250,22.1749382 250,15.3797582 C250,6.88559222 256.71687,0 265.000124,0 Z M255.725537,21.9764407 C255.692562,22.052092 255.575537,22.0747873 255.468926,22.0228401 C255.360331,21.9731625 255.299339,21.8700246 255.334545,21.7941211 C255.366777,21.7162003 255.48405,21.6945136 255.592397,21.746713 C255.70124,21.7963907 255.763223,21.9005373 255.725537,21.9764407 Z M256.331983,22.6643629 C256.260579,22.7316925 256.120992,22.7004233 256.026281,22.5940072 C255.928347,22.4878433 255.91,22.3458711 255.982397,22.2775327 C256.056033,22.2102031 256.191405,22.2417245 256.289587,22.3478884 C256.387521,22.4553132 256.406612,22.5962767 256.331983,22.6643629 Z M256.922314,23.5414132 C256.830579,23.6062211 256.680579,23.545448 256.587851,23.4100322 C256.496116,23.2746164 256.496116,23.1122184 256.589835,23.0471583 C256.68281,22.9820982 256.830579,23.0406018 256.924545,23.1750089 C257.016033,23.3126942 257.016033,23.4750923 256.922314,23.5414132 Z M257.731074,24.3887074 C257.649008,24.4807498 257.474215,24.456037 257.346281,24.3304559 C257.215372,24.2076487 257.178926,24.0333986 257.26124,23.9413563 C257.344298,23.8490617 257.520083,23.8750353 257.649008,23.9996077 C257.778926,24.1221628 257.818595,24.2976737 257.731074,24.3887074 Z M258.846777,24.8806928 C258.810579,24.9999696 258.642231,25.0541864 258.472645,25.0035 C258.303306,24.9513007 258.192479,24.811598 258.226694,24.6910603 C258.261901,24.571027 258.430992,24.5145407 258.601818,24.5687574 C258.770909,24.6207046 258.881983,24.7593986 258.846777,24.8806928 Z M260.072066,24.9719787 C260.076281,25.0975598 259.932479,25.2017064 259.754463,25.2039759 C259.575455,25.2080106 259.430661,25.1063858 259.428678,24.982822 C259.428678,24.8559801 259.569256,24.7528422 259.748264,24.7498161 C259.926281,24.7462857 260.072066,24.8471541 260.072066,24.9719787 Z M261.212314,24.7745289 C261.233636,24.8970839 261.109917,25.0229172 260.93314,25.0564559 C260.759339,25.0887338 260.59843,25.0130825 260.576364,24.8915362 C260.554793,24.7659551 260.680744,24.6401218 260.854298,24.6075917 C261.031322,24.5763226 261.189752,24.6499565 261.212314,24.7745289 Z" id="ic_github"></path>
            </g>
        </g>
    </g>
</svg>