<?xml version="1.0" encoding="UTF-8"?>
<svg width="30px" height="30px" viewBox="0 0 30 30" version="1.1" xmlns="http://www.w3.org/2000/svg" xmlns:xlink="http://www.w3.org/1999/xlink">
    <!-- Generator: Sketch 49.3 (51167) - http://www.bohemiancoding.com/sketch -->
    <title>ic_linkedin</title>
    <desc>Created with Sketch.</desc>
    <defs></defs>
    <g id="landing" stroke="none" stroke-width="1" fill="none" fill-rule="evenodd">
        <g id="ncrypto-landing" transform="translate(-395.000000, -8289.000000)" fill="#000000">
            <g id="Group-8" transform="translate(200.000000, 8269.000000)">
                <path d="M195,35 C195,26.7157283 201.715728,20 210,20 C218.284272,20 225,26.7157283 225,35 C225,43.2842717 218.284272,50 210,50 C201.715728,50 195,43.2842717 195,35 Z M205.600339,32.4236552 L202.201011,32.4236552 L202.201011,42.6372248 L205.600339,42.6372248 L205.600339,32.4236552 Z M205.824227,29.2641861 C205.802164,28.262752 205.086034,27.5 203.923145,27.5 C202.760256,27.5 202,28.262752 202,29.2641861 C202,30.2448769 202.737786,31.0295923 203.879019,31.0295923 L203.900743,31.0295923 C205.086034,31.0295923 205.824227,30.2448769 205.824227,29.2641861 Z M217.859616,36.7810761 C217.859616,33.6439093 216.182626,32.1838208 213.945711,32.1838208 C212.140892,32.1838208 211.332844,33.1751544 210.881673,33.8705928 L210.881673,32.4239263 L207.481937,32.4239263 C207.526742,33.3823149 207.481937,42.637496 207.481937,42.637496 L210.881673,42.637496 L210.881673,36.9333961 C210.881673,36.6281461 210.903736,36.3236418 210.993617,36.1050929 C211.239297,35.4952709 211.798678,34.8638923 212.737814,34.8638923 C213.968385,34.8638923 214.460288,35.8004531 214.460288,37.1729593 L214.460288,42.6372248 L217.85948,42.6372248 L217.859616,36.7810761 Z" id="ic_linkedin"></path>
            </g>
        </g>
    </g>
</svg>