<?xml version="1.0" encoding="UTF-8"?>
<svg width="115px" height="28px" viewBox="0 0 115 28" version="1.1" xmlns="http://www.w3.org/2000/svg" xmlns:xlink="http://www.w3.org/1999/xlink">
    <!-- Generator: Sketch 49.3 (51167) - http://www.bohemiancoding.com/sketch -->
    <title>ic_logotext</title>
    <desc>Created with Sketch.</desc>
    <defs></defs>
    <g id="landing" stroke="none" stroke-width="1" fill="none" fill-rule="evenodd">
        <g id="ncrypto-landing" transform="translate(-200.000000, -30.000000)" fill="#FFFFFF">
            <g id="ic_logotext" transform="translate(200.000000, 30.000000)">
                <path d="M13.07575,22.187 L10.57575,22.187 L10.57575,13.237 C10.57575,11.0595 8.76825,9.287 6.54825,9.287 C4.30575,9.287 2.50075,11.0595 2.50075,13.237 L2.50075,22.187 L0.00075,22.187 L0.00075,13.237 C0.00075,9.6795 2.92825,6.787 6.52825,6.787 C10.14575,6.787 13.07575,9.6795 13.07575,13.237 L13.07575,22.187 Z M25.98575,22.9145 C21.47825,22.9145 17.81075,19.2495 17.81075,14.742 C17.81075,10.237 21.47825,6.5695 25.98575,6.5695 C28.53825,6.5695 30.90075,7.7295 32.46075,9.752 L30.47825,11.282 C29.39575,9.8745 27.75825,9.0695 25.98575,9.0695 C22.85825,9.0695 20.31075,11.6145 20.31075,14.742 C20.31075,17.8695 22.85825,20.4145 25.98575,20.4145 C27.75825,20.4145 29.39575,19.6095 30.48075,18.2045 L32.45825,19.7345 C30.89825,21.7545 28.53825,22.9145 25.98575,22.9145 Z M106.61825,22.91425 C102.11075,22.91425 98.44325,19.24925 98.44325,14.74425 C98.44325,10.23675 102.11075,6.56925 106.61825,6.56925 C111.12575,6.56925 114.79325,10.23675 114.79325,14.74425 C114.79325,19.24925 111.12575,22.91425 106.61825,22.91425 Z M106.61825,9.06925 C103.49075,9.06925 100.94325,11.61675 100.94325,14.74425 C100.94325,17.87175 103.49075,20.41425 106.61825,20.41425 C109.74575,20.41425 112.29325,17.87175 112.29325,14.74425 C112.29325,11.61675 109.74575,9.06925 106.61825,9.06925 Z M39.914,22.187 L37.414,22.187 L37.414,12.537 C37.414,9.4145 39.954,6.8745 43.0765,6.8745 L46.554,6.8745 L46.554,9.3745 L43.0765,9.3745 C41.3315,9.3745 39.914,10.792 39.914,12.537 L39.914,22.187 Z M95.89075,6.8745 L95.89075,9.3745 L91.82825,9.3745 L91.82825,22.187 L89.32825,22.187 L89.32825,0.6245 L91.82825,0.6245 L91.82825,6.8745 L95.89075,6.8745 Z M76.19825,6.5695 C80.70575,6.5695 84.37325,10.237 84.37325,14.742 C84.37325,19.2495 80.70575,22.9145 76.19825,22.9145 C75.06825,22.9145 74.00075,22.6645 73.02325,22.2445 L73.02325,27.6545 L70.52325,27.6545 L70.52325,6.822 L73.02325,6.822 L73.02325,7.237 C74.00075,6.8195 75.06825,6.5695 76.19825,6.5695 Z M76.19825,20.4145 C79.32575,20.4145 81.87325,17.8695 81.87325,14.742 C81.87325,11.6145 79.32575,9.0695 76.19825,9.0695 C75.00825,9.0695 73.93325,9.4695 73.02325,10.0995 L73.02325,19.382 C73.93325,20.0145 75.00825,20.4145 76.19825,20.4145 Z M54.02775,27.65575 L57.29025,20.66825 L50.59525,6.87325 L53.37275,6.87325 L58.65275,17.74825 L63.72525,6.87325 L66.48025,6.87325 L56.78525,27.65575 L54.02775,27.65575 Z" id="Combined-Shape"></path>
            </g>
        </g>
    </g>
</svg>