<?xml version="1.0" encoding="UTF-8"?>
<svg width="30px" height="30px" viewBox="0 0 30 30" version="1.1" xmlns="http://www.w3.org/2000/svg" xmlns:xlink="http://www.w3.org/1999/xlink">
    <!-- Generator: Sketch 49.3 (51167) - http://www.bohemiancoding.com/sketch -->
    <title>ic_linkedin</title>
    <desc>Created with Sketch.</desc>
    <defs></defs>
    <g id="landing" stroke="none" stroke-width="1" fill="none" fill-rule="evenodd">
        <g id="ncrypto-landing" transform="translate(-400.000000, -680.000000)" fill="#4D4D4D">
            <g id="Group-5" transform="translate(200.000000, 680.000000)">
                <path d="M200,15 C200,6.71572834 206.715728,0 215,0 C223.284272,0 230,6.71572834 230,15 C230,23.2842717 223.284272,30 215,30 C206.715728,30 200,23.2842717 200,15 Z M210.600339,12.4236552 L207.201011,12.4236552 L207.201011,22.6372248 L210.600339,22.6372248 L210.600339,12.4236552 Z M210.824227,9.26418606 C210.802164,8.26275203 210.086034,7.5 208.923145,7.5 C207.760256,7.5 207,8.26275203 207,9.26418606 C207,10.2448769 207.737786,11.0295923 208.879019,11.0295923 L208.900743,11.0295923 C210.086034,11.0295923 210.824227,10.2448769 210.824227,9.26418606 Z M222.859616,16.7810761 C222.859616,13.6439093 221.182626,12.1838208 218.945711,12.1838208 C217.140892,12.1838208 216.332844,13.1751544 215.881673,13.8705928 L215.881673,12.4239263 L212.481937,12.4239263 C212.526742,13.3823149 212.481937,22.637496 212.481937,22.637496 L215.881673,22.637496 L215.881673,16.9333961 C215.881673,16.6281461 215.903736,16.3236418 215.993617,16.1050929 C216.239297,15.4952709 216.798678,14.8638923 217.737814,14.8638923 C218.968385,14.8638923 219.460288,15.8004531 219.460288,17.1729593 L219.460288,22.6372248 L222.85948,22.6372248 L222.859616,16.7810761 Z" id="ic_linkedin"></path>
            </g>
        </g>
    </g>
</svg>