<?xml version="1.0" encoding="UTF-8"?>
<svg width="32px" height="32px" viewBox="0 0 32 32" version="1.1" xmlns="http://www.w3.org/2000/svg" xmlns:xlink="http://www.w3.org/1999/xlink">
    <!-- Generator: Sketch 49.3 (51167) - http://www.bohemiancoding.com/sketch -->
    <title>ic_montranfer</title>
    <desc>Created with Sketch.</desc>
    <defs></defs>
    <g id="landing" stroke="none" stroke-width="1" fill="none" fill-rule="evenodd">
        <g id="ncrypto-landing" transform="translate(-554.000000, -3937.000000)" fill="#ffffff">
            <g id="ic_montranfer" transform="translate(549.000000, 3932.000000)">
                <path d="M10,17 C10,17.5522847 9.55228475,18 9,18 C8.44771525,18 8,17.5522847 8,17 L8,12.409713 C8,10.2267067 8.20271276,9.1769739 8.78601856,8.08628688 C9.31498609,7.09720359 10.0972036,6.31498609 11.0862869,5.78601856 C12.1769739,5.20271276 13.2267067,5 15.409713,5 L26.590287,5 C28.7732933,5 29.8230261,5.20271276 30.9137131,5.78601856 C31.9027964,6.31498609 32.6850139,7.09720359 33.2139814,8.08628688 C33.7972872,9.1769739 34,10.2267067 34,12.409713 L34,21 C34,21.5522847 33.5522847,22 33,22 C32.4477153,22 32,21.5522847 32,21 L32,12.409713 C32,10.5286361 31.8575208,9.79081842 31.450355,9.0294846 C31.1077871,8.38893826 30.6110617,7.89221289 29.9705154,7.54964496 C29.2091816,7.14247918 28.4713639,7 26.590287,7 L15.409713,7 C13.5286361,7 12.7908184,7.14247918 12.0294846,7.54964496 C11.3889383,7.89221289 10.8922129,8.38893826 10.549645,9.0294846 C10.1424792,9.79081842 10,10.5286361 10,12.409713 L10,17 Z M32,25 C32,24.4477153 32.4477153,24 33,24 C33.5522847,24 34,24.4477153 34,25 L34,29.590287 C34,31.7732933 33.7972872,32.8230261 33.2139814,33.9137131 C32.6850139,34.9027964 31.9027964,35.6850139 30.9137131,36.2139814 C29.8230261,36.7972872 28.7732933,37 26.590287,37 L15.409713,37 C13.2267067,37 12.1769739,36.7972872 11.0862869,36.2139814 C10.0972036,35.6850139 9.31498609,34.9027964 8.78601856,33.9137131 C8.20271276,32.8230261 8,31.7732933 8,29.590287 L8,21 C8,20.4477153 8.44771525,20 9,20 C9.55228475,20 10,20.4477153 10,21 L10,29.590287 C10,31.4713639 10.1424792,32.2091816 10.549645,32.9705154 C10.8922129,33.6110617 11.3889383,34.1077871 12.0294846,34.450355 C12.7908184,34.8575208 13.5286361,35 15.409713,35 L26.590287,35 C28.4713639,35 29.2091816,34.8575208 29.9705154,34.450355 C30.6110617,34.1077871 31.1077871,33.6110617 31.450355,32.9705154 C31.8575208,32.2091816 32,31.4713639 32,29.590287 L32,25 Z" id="Rectangle-22" fill-rule="nonzero"></path>
                <path d="M20.0839844,13.2290039 L21.7773275,13.229012 L21.7773275,15.01368 C22.2753744,15.0911512 22.7512832,15.2502522 23.2050619,15.4909749 C23.6588407,15.7316976 23.9881077,15.9516683 24.192863,16.150887 L24.4999919,16.4580159 L23.3129802,17.6533284 C23.2908421,17.6311903 23.2590251,17.5938368 23.2175212,17.5412679 C23.1760173,17.488699 23.0819445,17.4056911 22.9352946,17.2922444 C22.7886448,17.1787977 22.6309299,17.0764241 22.4621501,16.9851155 C22.2933702,16.8938069 22.0720134,16.8121853 21.7980876,16.7402425 C21.5241618,16.6682997 21.2350206,16.6323323 20.930656,16.6323323 C20.3163981,16.6323323 19.8225017,16.7845106 19.4489665,17.0888753 C19.0754313,17.39324 18.8886638,17.7501736 18.8886638,18.1596761 C18.8886638,18.5249104 19.0048747,18.8320394 19.2372966,19.0810628 C19.4697185,19.3300862 19.7699327,19.5251546 20.1379313,19.6662679 C20.5059299,19.8073812 20.9140544,19.9346571 21.3622966,20.0481038 C21.8105388,20.1615505 22.258781,20.2998996 22.7070231,20.463151 C23.1552653,20.6264024 23.5633898,20.824235 23.9313884,21.0566568 C24.299387,21.2890787 24.5996013,21.62111 24.8320231,22.0527506 C25.064445,22.4843912 25.180656,22.9990396 25.180656,23.5966959 C25.180656,24.0394015 25.1184001,24.4419894 24.9938884,24.8044596 C24.8693767,25.1669297 24.7075114,25.4643717 24.5082927,25.6967936 C24.3090739,25.9292154 24.0877171,26.136735 23.8442302,26.3193521 C23.6007433,26.5019693 23.3572564,26.6389322 23.1137695,26.7302408 C22.8702826,26.8215494 22.6489258,26.8976426 22.449707,26.9585123 C22.2504883,27.019382 22.0900092,27.0553493 21.9682617,27.0664144 L21.7773438,27.0830159 L21.7773438,28.8676839 L20.0839844,28.8676839 L20.0839844,27.0830159 C19.6744819,27.0387478 19.2774305,26.946053 18.8928304,26.8049397 C18.5082302,26.6638265 18.187264,26.510262 17.9299397,26.3442464 C17.6726155,26.1782308 17.4457302,26.0163655 17.2492757,25.8586507 C17.0528212,25.7009358 16.9075575,25.5722737 16.8134847,25.4726644 L16.6806722,25.2983479 L17.8676839,24.1113362 C17.889822,24.1445394 17.9271755,24.1929579 17.9797444,24.2565999 C18.0323133,24.3202419 18.1512885,24.4309163 18.3366699,24.5886312 C18.5220513,24.746346 18.7226562,24.8846951 18.9384766,25.0036702 C19.1542969,25.1226454 19.4406738,25.2305555 19.7976074,25.3274007 C20.154541,25.4242458 20.5322266,25.4726644 20.9306641,25.4726644 C21.6666694,25.4726644 22.2477241,25.2941976 22.6738281,24.937264 C23.0999322,24.5803304 23.3129883,24.1334743 23.3129883,23.5966878 C23.3129883,23.2314534 23.1967773,22.9257107 22.9643555,22.6794515 C22.7319336,22.4331923 22.4317193,22.2395101 22.0637207,22.0983968 C21.6957221,21.9572835 21.2875977,21.8300076 20.8393555,21.7165608 C20.3911133,21.6031141 19.9428711,21.463387 19.4946289,21.2973714 C19.0463867,21.1313558 18.6382623,20.932137 18.2702637,20.6997151 C17.9022651,20.4672933 17.6020508,20.1366482 17.3696289,19.7077718 C17.137207,19.2788954 17.0209961,18.7628608 17.0209961,18.159668 C17.0209961,17.639483 17.126142,17.1746392 17.3364258,16.7651367 C17.5467095,16.3556342 17.8012695,16.0471191 18.1000977,15.8395996 C18.3989258,15.6320801 18.6991401,15.4591498 19.0007324,15.3208008 C19.3023248,15.1824517 19.5610352,15.0966797 19.7768555,15.0634766 L20.0839844,15.0136719 L20.0839844,13.2290039 Z" id="$"></path>
                <path d="M9,15.5857864 L11.2928932,13.2928932 C11.6834175,12.9023689 12.3165825,12.9023689 12.7071068,13.2928932 C13.0976311,13.6834175 13.0976311,14.3165825 12.7071068,14.7071068 L9.70710678,17.7071068 C9.31658249,18.0976311 8.68341751,18.0976311 8.29289322,17.7071068 L5.29289322,14.7071068 C4.90236893,14.3165825 4.90236893,13.6834175 5.29289322,13.2928932 C5.68341751,12.9023689 6.31658249,12.9023689 6.70710678,13.2928932 L9,15.5857864 Z" id="Path-11" fill-rule="nonzero"></path>
                <path d="M35.2928932,24.2928932 C35.6834175,23.9023689 36.3165825,23.9023689 36.7071068,24.2928932 C37.0976311,24.6834175 37.0976311,25.3165825 36.7071068,25.7071068 L33.7071068,28.7071068 C33.3165825,29.0976311 32.6834175,29.0976311 32.2928932,28.7071068 L29.2928932,25.7071068 C28.9023689,25.3165825 28.9023689,24.6834175 29.2928932,24.2928932 C29.6834175,23.9023689 30.3165825,23.9023689 30.7071068,24.2928932 L33,26.5857864 L35.2928932,24.2928932 Z" id="Path-11" fill-rule="nonzero" transform="translate(33.000000, 26.500000) scale(1, -1) translate(-33.000000, -26.500000) "></path>
            </g>
        </g>
    </g>
</svg>