<?xml version="1.0" encoding="UTF-8"?>
<svg width="34px" height="34px" viewBox="0 0 34 34" version="1.1" xmlns="http://www.w3.org/2000/svg" xmlns:xlink="http://www.w3.org/1999/xlink">
    <!-- Generator: Sketch 49.3 (51167) - http://www.bohemiancoding.com/sketch -->
    <title>ic_multicurr</title>
    <desc>Created with Sketch.</desc>
    <defs>
        <path d="M21.8311619,14.7439342 C18.5573199,15.9568977 15.9568977,18.5573199 14.7439342,21.8311619 C14.1797445,21.9419401 13.5966525,22 13,22 C8.02943725,22 4,17.9705627 4,13 C4,8.02943725 8.02943725,4 13,4 C17.9705627,4 22,8.02943725 22,13 C22,13.5966525 21.9419401,14.1797445 21.8311619,14.7439342 Z M13,6 L9,15 L13,20 L17,15 L13,6 Z" id="path-1"></path>
    </defs>
    <g id="landing" stroke="none" stroke-width="1" fill="none" fill-rule="evenodd">
        <g id="ncrypto-landing" transform="translate(-744.000000, -2125.000000)">
            <g id="Group-12" transform="translate(740.000000, 2121.000000)">
                <g id="ic_multicurr">
                    <g id="Combined-Shape">
                        <use fill="#000000" fill-rule="evenodd" xlink:href="#path-1"></use>
                        <path stroke="#000000" stroke-width="2" d="M20.9352089,14.023832 C20.9782514,13.6864713 21,13.3447529 21,13 C21,8.581722 17.418278,5 13,5 C8.581722,5 5,8.581722 5,13 C5,17.418278 8.581722,21 13,21 C13.3447529,21 13.6864713,20.9782514 14.023832,20.9352089 C15.3394451,17.8278395 17.8278395,15.3394451 20.9352089,14.023832 Z M13,3.53778555 L18.1608559,15.1497112 L13,21.6007811 L7.83914414,15.1497112 L13,3.53778555 Z"></path>
                    </g>
                    <path d="M26,36 C31.5228475,36 36,31.5228475 36,26 C36,20.4771525 31.5228475,16 26,16 C20.4771525,16 16,20.4771525 16,26 C16,31.5228475 20.4771525,36 26,36 Z M26,38 C19.372583,38 14,32.627417 14,26 C14,19.372583 19.372583,14 26,14 C32.627417,14 38,19.372583 38,26 C38,32.627417 32.627417,38 26,38 Z" id="Oval-12-Copy" fill="#000000" fill-rule="nonzero"></path>
                    <g id="Group-10" transform="translate(26.598482, 26.097514) rotate(10.000000) translate(-26.598482, -26.097514) translate(20.598482, 16.597514)" fill="#000000">
                        <path d="M6.515625,15 L1.43751526,15 L1.43751526,3.796875 L6.24220276,3.796875 C7.25782776,3.796875 8.09767151,4.09375 8.76173401,4.6875 C9.42579651,5.28125 9.75782776,5.97135162 9.75782776,6.7578125 C9.75782776,7.0546875 9.71616364,7.33724213 9.63282776,7.60546875 C9.54949188,7.87369537 9.44271851,8.09635162 9.31250763,8.2734375 C9.18229675,8.45052338 9.0533905,8.60286713 8.92578888,8.73046875 C8.79818726,8.85807037 8.69271851,8.94791412 8.60938263,9 L8.47657013,9.078125 C8.52865601,9.09896088 8.59506226,9.12890625 8.67578888,9.16796875 C8.7565155,9.20703125 8.90364838,9.30338287 9.1171875,9.45703125 C9.33072662,9.61067963 9.51822662,9.77864838 9.6796875,9.9609375 C9.84114838,10.1432266 9.98828125,10.391922 10.1210938,10.7070236 C10.2539062,11.0221252 10.3203125,11.3593674 10.3203125,11.7187424 C10.3203125,12.6145782 9.96353912,13.3854141 9.25,14.03125 C8.53646088,14.6770859 7.625,15 6.515625,15 Z M3.84376526,13 L6.39845276,13 C6.83595276,13 7.19923401,12.8619766 7.48829651,12.5859375 C7.77735901,12.3098984 7.92189026,11.96875 7.92189026,11.5625 C7.92189026,11.15625 7.77735901,10.8138046 7.48829651,10.5351562 C7.19923401,10.2565079 6.83595276,10.1171875 6.39845276,10.1171875 L3.84376526,10.1171875 L3.84376526,13 Z M6.07814026,5.796875 L3.84376526,5.796875 L3.84376526,8.203125 L6.07814026,8.203125 C6.47397614,8.203125 6.78647614,8.09375 7.01564026,7.875 C7.24480438,7.65625 7.35939026,7.36458588 7.35939026,7 C7.35939026,6.63541412 7.24480438,6.34375 7.01564026,6.125 C6.78647614,5.90625 6.47397614,5.796875 6.07814026,5.796875 Z" id="B"></path>
                        <rect id="Rectangle-17" x="4" y="2" width="2" height="2"></rect>
                        <rect id="Rectangle-17" x="4" y="15" width="2" height="2"></rect>
                    </g>
                </g>
            </g>
        </g>
    </g>
</svg>