<?xml version="1.0" encoding="UTF-8"?>
<svg width="30px" height="30px" viewBox="0 0 30 30" version="1.1" xmlns="http://www.w3.org/2000/svg" xmlns:xlink="http://www.w3.org/1999/xlink">
    <!-- Generator: Sketch 49.3 (51167) - http://www.bohemiancoding.com/sketch -->
    <title>ic_medium</title>
    <desc>Created with Sketch.</desc>
    <defs></defs>
    <g id="landing" stroke="none" stroke-width="1" fill="none" fill-rule="evenodd">
        <g id="ncrypto-landing" transform="translate(-550.000000, -680.000000)" fill="#4D4D4D">
            <g id="Group-5" transform="translate(200.000000, 680.000000)">
                <path d="M365,30 C356.715729,30 350,23.2842712 350,15 C350,6.71572875 356.715729,0 365,0 C373.284271,0 380,6.71572875 380,15 C380,23.2842712 373.284271,30 365,30 Z M358.643013,11.053302 L358.643013,18.4763864 C358.688344,18.7441647 358.604575,19.0177021 358.417367,19.2132079 L356.666667,21.3531256 L356.666667,21.6353126 L361.630875,21.6353126 L361.630875,21.3531256 L359.880174,19.2132079 C359.691593,19.0180256 359.602637,18.7462909 359.638967,18.4763864 L359.638967,12.0566334 L363.996265,21.6353126 L364.502023,21.6353126 L368.244631,12.0566334 L368.244631,19.6913581 C368.244631,19.8951597 368.244631,19.9343523 368.112356,20.0676073 L366.766262,21.3844797 L366.766262,21.6666667 L373.30221,21.6666667 L373.30221,21.3844797 L372.002801,20.0989614 C371.888095,20.0108528 371.831194,19.8660403 371.854964,19.7227122 L371.854964,10.2772879 C371.831194,10.1339598 371.888095,9.98914714 372.002801,9.9010386 L373.333333,8.61552028 L373.333333,8.33333333 L368.727046,8.33333333 L365.443511,16.5873015 L361.708683,8.33333333 L356.876751,8.33333333 L356.876751,8.61552028 L358.432929,10.5046051 C358.5857,10.6433629 358.66372,10.8471355 358.643013,11.053302 Z" id="ic_medium"></path>
            </g>
        </g>
    </g>
</svg>