<?xml version="1.0" encoding="UTF-8"?>
<svg width="22px" height="28px" viewBox="0 0 22 28" version="1.1" xmlns="http://www.w3.org/2000/svg" xmlns:xlink="http://www.w3.org/1999/xlink">
    <!-- Generator: Sketch 49.3 (51167) - http://www.bohemiancoding.com/sketch -->
    <title>ic_plugin</title>
    <desc>Created with Sketch.</desc>
    <defs></defs>
    <g id="landing" stroke="none" stroke-width="1" fill="none" fill-rule="evenodd">
        <g id="ncrypto-landing" transform="translate(-750.000000, -2007.000000)" fill="#000000" fill-rule="nonzero">
            <g id="Group-11" transform="translate(740.000000, 2001.000000)">
                <g id="ic_plugin">
                    <path d="M12.2057193,32 L25,32 C27.7614237,32 30,29.7614237 30,27 L29.9999997,14.205763 C27.8257313,14.5895711 25.6509202,14.8343122 23.4757838,14.9399061 L22.2373969,15.0000247 L22.4408507,13.7769863 C22.4771565,13.5589641 22.4771565,13.5589641 22.5136352,13.3403386 C22.8674667,11.2196579 23,10.3348401 23,10 C23,8.8954305 22.1045695,8 21,8 C19.8954305,8 19,8.8954305 19,10 C19,10.6788628 19.148116,11.9495215 19.4457018,13.7744812 L19.6450519,14.9970053 L18.4079777,14.9341307 C16.3546718,14.829771 14.3016574,14.6014148 12.2491315,14.2491319 C12.5312458,15.8928296 12.7338843,17.5368351 12.8570123,19.1810547 C13.7813774,19.0605651 14.4921063,19 15,19 C17.209139,19 19,20.790861 19,23 C19,25.209139 17.209139,27 15,27 C14.6272865,27 14.0243679,26.9239717 12.862978,26.738433 C12.734388,28.4925759 12.5153011,30.2464745 12.2057193,32 Z M29.6522736,12.2362233 C30.7400456,12.0441659 31.777532,12.7703173 31.9695492,13.8580924 C31.9898109,13.972875 32,14.0892092 32,14.2057664 L32,27 C32,30.8659932 28.8659932,34 24.9999964,34 L12.2057157,33.9999535 C11.1011719,33.9999535 10.2057622,33.1045438 10.2057622,32 C10.2057622,31.8834463 10.215951,31.7671156 10.2362122,31.6523365 C10.5970271,29.6083305 10.8299677,27.5648642 10.9351126,25.5217166 L10.9926893,24.4029011 L12.0978128,24.586654 C13.8104333,24.8714177 14.6940245,25 15,25 C16.1045695,25 17,24.1045695 17,23 C17,21.8954305 16.1045695,21 15,21 C14.4353417,21 13.4523244,21.1032581 12.0780539,21.3113818 L10.9886631,21.4763623 L10.9297488,20.376126 C10.8264458,18.4469186 10.6092034,16.5174259 10.2779586,14.5874774 C10.0910896,13.4988176 10.8221493,12.4648061 11.9108105,12.2779549 C12.1347219,12.2395241 12.3635443,12.2395241 12.5874557,12.2779549 C14.1519225,12.5464708 15.7160807,12.7400737 17.2800298,12.8587982 C17.0935494,11.576761 17,10.6295382 17,10 C17,7.790861 18.790861,6 21,6 C23.209139,6 25,7.790861 25,10 C25,10.4466415 24.9073893,11.1195955 24.6196519,12.8663111 C26.2969229,12.7424173 27.9744288,12.5324013 29.6522736,12.2362233 Z" id="Combined-Shape"></path>
                </g>
            </g>
        </g>
    </g>
</svg>