<?xml version="1.0" encoding="UTF-8"?>
<svg width="30px" height="24px" viewBox="0 0 30 24" version="1.1" xmlns="http://www.w3.org/2000/svg" xmlns:xlink="http://www.w3.org/1999/xlink">
    <!-- Generator: Sketch 49.3 (51167) - http://www.bohemiancoding.com/sketch -->
    <title>ic_prospectus</title>
    <desc>Created with Sketch.</desc>
    <defs></defs>
    <g id="landing" stroke="none" stroke-width="1" fill="none" fill-rule="evenodd">
        <g id="ncrypto-landing" transform="translate(-1005.000000, -3941.000000)" fill="#ffffff">
            <g id="ic_prospectus" transform="translate(999.000000, 3932.000000)">
                <path d="M16.1715729,11 L9,11 C8.44771525,11 8,11.4477153 8,12 L8,30 C8,30.5522847 8.44771525,31 9,31 L33,31 C33.5522847,31 34,30.5522847 34,30 L34,15 C34,14.4477153 33.5522847,14 33,14 L19.1715729,14 L16.1715729,11 Z M9,9 L17,9 L20,12 L33,12 C34.6568542,12 36,13.3431458 36,15 L36,30 C36,31.6568542 34.6568542,33 33,33 L9,33 C7.34314575,33 6,31.6568542 6,30 L6,12 C6,10.3431458 7.34314575,9 9,9 Z" id="Rectangle-23" fill-rule="nonzero"></path>
                <rect id="Rectangle-26" x="10" y="17" width="22" height="2" rx="1"></rect>
            </g>
        </g>
    </g>
</svg>