<?xml version="1.0" encoding="UTF-8"?>
<svg width="24px" height="28px" viewBox="0 0 24 28" version="1.1" xmlns="http://www.w3.org/2000/svg" xmlns:xlink="http://www.w3.org/1999/xlink">
    <!-- Generator: Sketch 49.3 (51167) - http://www.bohemiancoding.com/sketch -->
    <title>ic_scontract</title>
    <desc>Created with Sketch.</desc>
    <defs></defs>
    <g id="landing" stroke="none" stroke-width="1" fill="none" fill-rule="evenodd">
        <g id="ncrypto-landing" transform="translate(-249.000000, -2008.000000)" fill="#000000">
            <g id="Group-15" transform="translate(240.000000, 2001.000000)">
                <g id="ic_scontract">
                    <path d="M14,9 C12.3431458,9 11,10.3431458 11,12 L11,30 C11,31.6568542 12.3431458,33 14,33 L28,33 C29.6568542,33 31,31.6568542 31,30 L31,12 C31,10.3431458 29.6568542,9 28,9 L14,9 Z M14,7 L28,7 C30.7614237,7 33,9.23857625 33,12 L33,30 C33,32.7614237 30.7614237,35 28,35 L14,35 C11.2385763,35 9,32.7614237 9,30 L9,12 C9,9.23857625 11.2385763,7 14,7 Z" id="Rectangle-10" fill-rule="nonzero"></path>
                    <rect id="Rectangle-14" x="13" y="12" width="16" height="2" rx="1"></rect>
                    <rect id="Rectangle-14" x="13" y="16" width="16" height="2" rx="1"></rect>
                    <rect id="Rectangle-14" x="13" y="20" width="16" height="2" rx="1"></rect>
                    <rect id="Rectangle-14" x="13" y="24" width="16" height="2" rx="1"></rect>
                    <rect id="Rectangle-14" x="13" y="28" width="9" height="2" rx="1"></rect>
                </g>
            </g>
        </g>
    </g>
</svg>