<?xml version="1.0" encoding="UTF-8"?>
<svg width="30px" height="30px" viewBox="0 0 30 30" version="1.1" xmlns="http://www.w3.org/2000/svg" xmlns:xlink="http://www.w3.org/1999/xlink">
    <!-- Generator: Sketch 49.3 (51167) - http://www.bohemiancoding.com/sketch -->
    <title>ic_slack</title>
    <desc>Created with Sketch.</desc>
    <defs>
	 <linearGradient x1="0%" y1="0%" x2="101.999998%" y2="100.999999%" id="linearGradient-1">
            <stop stop-color="#3023AE" offset="0%"></stop>
            <stop stop-color="#C86DD7" offset="100%"></stop>
        </linearGradient>
	</defs>
    <g id="landing" stroke="none" stroke-width="1" fill="none" fill-rule="evenodd">
        <g id="ncrypto-landing" transform="translate(-250.000000, -680.000000)" fill="url(#linearGradient-1)">
            <g id="Group-5" transform="translate(200.000000, 680.000000)">
                <path d="M68.7197538,12.1355357 C69.5933667,11.8516873 70.1552787,11.6691148 70.1552787,11.6691148 C70.9036066,11.4259672 71.3131803,10.6221639 71.0700328,9.87370492 C70.8268852,9.12537705 70.0230819,8.71580328 69.2746229,8.95895082 L67.8391908,9.42550945 C67.555314,8.55184918 67.3727213,7.98990164 67.3727213,7.98990164 C67.1295737,7.24144262 66.3257705,6.83186885 65.5774426,7.07514754 C64.8289836,7.31829508 64.4194098,8.12209836 64.6626885,8.87042623 L65.1293686,10.3062832 L62.1307703,11.2809178 C61.8467972,10.4069213 61.6641311,9.84472131 61.6641311,9.84472131 C61.4208525,9.09639344 60.6170492,8.68681968 59.8687213,8.92996721 C59.1202623,9.17311476 58.7106885,9.97691803 58.9539672,10.7253771 L59.4208105,12.1617363 L57.9392787,12.6432787 C57.2401311,12.8961311 56.8472131,13.6514098 57.056,14.3763934 C57.2735738,15.1325902 58.0767213,15.5935737 58.819541,15.3522623 C58.8259017,15.3501914 59.4062543,15.1616239 60.3013068,14.8708072 L61.2762039,17.8703137 L59.7942295,18.352 C59.095082,18.6048524 58.7021639,19.3601311 58.9108197,20.0851148 C59.1285246,20.8413115 59.9316721,21.3022951 60.6743607,21.0609836 C60.6807522,21.0589123 61.2613416,20.8702732 62.1566927,20.5793618 L62.6381639,22.0607213 C62.8911475,22.7598689 63.6464262,23.1527869 64.3714098,22.944 C65.1276066,22.7264263 65.5885902,21.9232787 65.3472787,21.180459 C65.345208,21.1740992 65.1566953,20.5939148 64.8659508,19.6990846 C65.845395,19.3808482 66.8880583,19.0420705 67.8654455,18.7245017 L68.3468852,20.2057705 C68.5998689,20.9049181 69.3551476,21.2978361 70.0801311,21.0891803 C70.8363279,20.8714754 71.2973115,20.0683279 71.056,19.3256394 C71.0539294,19.31925 70.8654144,18.7390632 70.5746655,17.8442437 C71.4481832,17.5604117 72.0100984,17.3778361 72.0100984,17.3778361 C72.7585574,17.1346885 73.168,16.3308853 72.9248524,15.5824263 C72.6817049,14.8340984 71.8779016,14.4245246 71.1295738,14.6676721 L69.6941145,15.1342396 C69.3759553,14.1550678 69.0372624,13.1127028 68.7197538,12.1355357 Z M66.0100609,13.0159513 L66.984762,16.0148606 L63.9856222,16.9896713 C63.6674176,16.0103215 63.3286637,14.9677254 63.0111026,13.9903544 C63.9903664,13.6721777 65.0328274,13.3334677 66.0100609,13.0159513 Z M50,15 C50,6.71572834 56.7157283,0 65,0 C73.2842717,0 80,6.71572834 80,15 C80,23.2842717 73.2842717,30 65,30 C56.7157283,30 50,23.2842717 50,15 Z" id="ic_slack"></path>
            </g>
        </g>
    </g>
</svg>