<?xml version="1.0" encoding="UTF-8"?>
<svg width="29px" height="29px" viewBox="0 0 29 29" version="1.1" xmlns="http://www.w3.org/2000/svg" xmlns:xlink="http://www.w3.org/1999/xlink">
    <!-- Generator: Sketch 49.3 (51167) - http://www.bohemiancoding.com/sketch -->
    <title>ic_tokenslae</title>
    <desc>Created with Sketch.</desc>
    <defs></defs>
    <g id="landing" stroke="none" stroke-width="1" fill="none" fill-rule="evenodd">
        <g id="ncrypto-landing" transform="translate(-856.000000, -3937.000000)" fill="#ffffff">
            <g id="ic_tokenslae" transform="translate(849.000000, 3932.000000)">
                <g id="Group-3" transform="translate(21.000000, 20.000000) rotate(45.000000) translate(-21.000000, -20.000000) translate(12.000000, 1.000000)" fill-rule="nonzero">
                    <path d="M17,24.4285714 C17,22.3055493 16.1706796,20.315969 14.7143305,18.8297793 L14.4285714,18.538165 L14.4285714,14.5300662 C14.4285714,11.1418635 13.3699051,7.83833221 11.4005522,5.08123819 L9.23249528,2.04595844 C9.21416966,2.02030258 9.19172392,1.99785684 9.16606806,1.97953122 C9.03766446,1.88781437 8.85922158,1.91755485 8.76750472,2.04595844 L6.59944776,5.08123819 C4.63009489,7.83833221 3.57142857,11.1418635 3.57142857,14.5300662 L3.57142857,18.538165 L3.2856695,18.8297793 C1.82932045,20.315969 1,22.3055493 1,24.4285714 C1,25.5539998 1.23237434,26.6434614 1.67177759,27.6434629 L3.72220158,24.7142857 L14.2777984,24.7142857 L16.3282224,27.6434629 C16.7676257,26.6434614 17,25.5539998 17,24.4285714 Z M1.57142857,17.7338977 L1.57142857,14.5300662 C1.57142857,10.7250175 2.76034116,7.01505733 4.97198081,3.91876181 L7.14003778,0.883482054 C7.87377262,-0.143746715 9.30131567,-0.381670558 10.3285444,0.352064277 C10.5337913,0.49866921 10.7133573,0.678235148 10.8599622,0.883482054 L13.0280192,3.91876181 C15.2396588,7.01505733 16.4285714,10.7250175 16.4285714,14.5300662 L16.4285714,17.7338977 C18.0702029,19.553795 19,21.9189499 19,24.4285714 C19,26.4766037 18.3819432,28.4348232 17.2458567,30.0874331 L16.4292277,31.2753435 L13.2364873,26.7142857 L4.7635127,26.7142857 L1.57077226,31.2753435 L0.75414335,30.0874331 C-0.381943185,28.4348232 -1,26.4766037 -1,24.4285714 C-1,21.9189499 -0.0702028687,19.553795 1.57142857,17.7338977 Z M11.8571429,30.8571429 C11.8571429,29.2791864 10.5779564,28 9,28 C7.42204357,28 6.14285714,29.2791864 6.14285714,30.8571429 C6.14285714,31.8295458 7.08654283,33.5081603 9,35.7654124 C10.9134572,33.5081603 11.8571429,31.8295458 11.8571429,30.8571429 Z M8.25572905,37.9535921 C5.52609926,34.911742 4.14285714,32.6063385 4.14285714,30.8571429 C4.14285714,28.1746169 6.31747407,26 9,26 C11.6825259,26 13.8571429,28.1746169 13.8571429,30.8571429 C13.8571429,32.6063385 12.4739007,34.911742 9.74427095,37.9535921 L9,38.7829942 L8.25572905,37.9535921 Z" id="Combined-Shape"></path>
                </g>
                <circle id="Oval-4" cx="26" cy="15" r="2"></circle>
            </g>
        </g>
    </g>
</svg>