<?xml version="1.0" encoding="UTF-8"?>
<svg width="30px" height="30px" viewBox="0 0 30 30" version="1.1" xmlns="http://www.w3.org/2000/svg" xmlns:xlink="http://www.w3.org/1999/xlink">
    <!-- Generator: Sketch 49.3 (51167) - http://www.bohemiancoding.com/sketch -->
    <title>ic_twiiter</title>
    <desc>Created with Sketch.</desc>
    <defs></defs>
    <g id="landing" stroke="none" stroke-width="1" fill="none" fill-rule="evenodd">
        <g id="ncrypto-landing" transform="translate(-350.000000, -680.000000)" fill="#4D4D4D">
            <g id="Group-5" transform="translate(200.000000, 680.000000)">
                <path d="M150,15 C150,6.71572834 156.715728,0 165,0 C173.284272,0 180,6.71572834 180,15 C180,23.2842717 173.284272,30 165,30 C156.715728,30 150,23.2842717 150,15 Z M164.783356,12.4918624 L164.815871,13.0325226 L164.273955,12.9663193 C162.301379,12.71254 160.578085,11.8518972 159.114911,10.4064586 L158.399581,9.68925619 L158.21533,10.2188826 C157.82515,11.399508 158.074431,12.6463367 158.887306,13.4849118 C159.320839,13.9483349 159.223294,14.0145382 158.475449,13.7386911 C158.21533,13.6504201 157.987725,13.5842168 157.966048,13.6173184 C157.89018,13.6945556 158.1503,14.6986389 158.356228,15.0958587 C158.638024,15.6475528 159.212456,16.1882131 159.841079,16.5081957 L160.372157,16.761975 L159.743534,16.7730089 C159.136587,16.7730089 159.114911,16.7840427 159.179941,17.0157543 C159.396707,17.7329567 160.252935,18.4942946 161.206708,18.825311 L161.878684,19.0570226 L161.293415,19.4101068 C160.426348,19.9176654 159.407546,20.2045464 158.388743,20.2266141 C157.901018,20.237648 157.5,20.2817835 157.5,20.3148852 C157.5,20.425224 158.822276,21.0431215 159.591797,21.2858669 C161.900361,22.0030692 164.642458,21.6941205 166.70174,20.4693596 C168.164914,19.5976828 169.628088,17.8653632 170.310903,16.1882131 C170.679406,15.2944686 171.047909,13.6614539 171.047909,12.8780483 C171.047909,12.3704897 171.080424,12.3042864 171.68737,11.6974228 C172.045035,11.3443386 172.381023,10.9581527 172.446053,10.8478139 C172.554437,10.6381701 172.543598,10.6381701 171.990844,10.8257461 C171.069586,11.1567626 170.939526,11.1126271 171.394736,10.6161023 C171.730724,10.2630181 172.131742,9.62305289 172.131742,9.43547689 C172.131742,9.40237524 171.969167,9.45754465 171.784915,9.5568496 C171.589825,9.66718842 171.156292,9.83269666 170.831143,9.93200161 L170.245873,10.1195776 L169.714795,9.75545949 C169.42216,9.5568496 169.010304,9.33617194 168.793537,9.26996865 C168.240782,9.11549429 167.395393,9.13756206 166.89683,9.31410418 C165.542039,9.8106289 164.685811,11.0905593 164.783356,12.4918624 Z" id="ic_twiiter"></path>
            </g>
        </g>
    </g>
</svg>