<?xml version="1.0" encoding="UTF-8"?>
<svg width="38px" height="38px" viewBox="0 0 38 38" version="1.1" xmlns="http://www.w3.org/2000/svg" xmlns:xlink="http://www.w3.org/1999/xlink">
    <!-- Generator: Sketch 49.3 (51167) - http://www.bohemiancoding.com/sketch -->
    <title>ic_telegram_wt</title>
    <desc>Created with Sketch.</desc>
    <defs></defs>
    <g id="landing" stroke="none" stroke-width="1" fill="none" fill-rule="evenodd">
        <g id="0.09-landing-screen" transform="translate(-1329.000000, -953.000000)" fill="#FFFFFF">
            <path d="M1348,991 C1337.50659,991 1329,982.49341 1329,972 C1329,961.50659 1337.50659,953 1348,953 C1358.49341,953 1367,961.50659 1367,972 C1367,982.49341 1358.49341,991 1348,991 Z M1346.25521,974.587498 C1345.47343,975.292997 1345.51917,976.366946 1346.37077,976.996117 L1352.49667,981.522008 C1353.37043,982.004118 1354.00106,981.754505 1354.2187,980.710788 L1357.33549,966.023312 C1357.6546,964.743947 1356.84781,964.163688 1356.01192,964.543181 L1337.71017,971.600256 C1336.4609,972.101333 1336.46819,972.798301 1337.48246,973.108856 L1341.27354,974.292114 C1341.77366,974.448211 1342.54087,974.346516 1342.97863,974.070336 L1353.05232,967.714962 C1353.56562,967.403694 1354.03673,967.571038 1353.65006,967.914208 L1346.25521,974.587498 Z" id="ic_telegram_wt"></path>
        </g>
    </g>
</svg>