<?xml version="1.0" encoding="UTF-8"?>
<svg width="37px" height="25px" viewBox="0 0 37 25" version="1.1" xmlns="http://www.w3.org/2000/svg" xmlns:xlink="http://www.w3.org/1999/xlink">
    <!-- Generator: Sketch 49.3 (51167) - http://www.bohemiancoding.com/sketch -->
    <title>ic_tps</title>
    <desc>Created with Sketch.</desc>
    <defs></defs>
    <g id="landing" stroke="none" stroke-width="1" fill="none" fill-rule="evenodd">
        <g id="ncrypto-landing" transform="translate(-702.000000, -5386.000000)" fill="#000000">
            <g id="ic_tps" transform="translate(697.000000, 5372.000000)">
                <path d="M33.5146484,22.1953125 C35.8942003,22.1953125 37.8504286,22.9479275 39.3833008,24.4531412 C40.916173,25.9583549 41.6826172,27.8675346 41.6826172,30.1806803 C41.6826172,32.5823784 40.8995714,34.5413628 39.3334961,36.0576334 C37.7674208,37.573904 35.7171278,38.3320475 33.1826172,38.3320475 C32.0979872,38.3320475 31.065918,38.2020073 30.0864258,37.9419107 C29.1069336,37.6818142 28.2989855,37.371913 27.6625977,37.012207 C27.0262098,36.6525011 26.4783583,36.2900391 26.019043,35.9248047 C25.5597277,35.5595703 25.2138672,35.2552137 24.9814453,35.0117188 L24.6826172,34.5966797 L27.0566406,32.2226562 C27.1009169,32.2890625 27.1811523,32.3858995 27.2973633,32.5131836 C27.4135742,32.6404676 27.6625977,32.8618164 28.0444336,33.1772461 C28.4262695,33.4926758 28.8330078,33.7693739 29.2646484,34.0073242 C29.6962891,34.2452745 30.2635145,34.4610949 30.9663086,34.6547852 C31.6691027,34.8484755 32.4078722,34.9453125 33.1826172,34.9453125 C34.5439453,34.9453125 35.6756239,34.4915419 36.5776367,33.5839844 C37.4796495,32.6764269 37.9306641,31.5419922 37.9306641,30.1806641 C37.9306641,28.8193359 37.4768934,27.6849012 36.5693359,26.7773438 C35.6617785,25.8697863 34.5328722,25.4160156 33.1826172,25.4160156 C32.1865234,25.4160156 31.2900391,25.5986328 30.4931641,25.9638672 C29.6962891,26.3291016 29.153966,26.6943359 28.8662109,27.0595703 L28.4179688,27.6240234 L25.6953125,27.6240234 L26.3759766,14.1933594 L40.1386719,14.1933594 L40.1386719,17.5966797 L29.7792969,17.5966797 L29.4306641,23.2080078 C30.3382215,22.5328722 31.6995497,22.1953125 33.5146484,22.1953125 Z" id="5"></path>
                <polygon id="&lt;" points="5.86132812 27.5126953 5.86132812 25.8193359 20.1386719 18.3320312 20.1386719 21.7353516 10.6259766 26.6660156 20.1386719 31.5966797 20.1386719 35"></polygon>
            </g>
        </g>
    </g>
</svg>